<?xml version="1.0" standalone="no"?>
<svg xmlns:xlink="http://www.w3.org/1999/xlink" id="wave" style="transform:rotate(0deg); transition: 0.3s" viewBox="0 0 1440 220" version="1.1" xmlns="http://www.w3.org/2000/svg"><defs><linearGradient id="sw-gradient-0" x1="0" x2="0" y1="1" y2="0"><stop stop-color="rgba(255, 255, 255, 1)" offset="0%"/><stop stop-color="rgba(118.763, 118.763, 118.763, 1)" offset="100%"/></linearGradient></defs><path style="transform:translate(0, 0px); opacity:1" fill="url(#sw-gradient-0)" d="M0,22L80,51.3C160,81,320,139,480,146.7C640,154,800,110,960,106.3C1120,103,1280,139,1440,143C1600,147,1760,117,1920,99C2080,81,2240,73,2400,88C2560,103,2720,139,2880,161.3C3040,183,3200,191,3360,194.3C3520,198,3680,198,3840,190.7C4000,183,4160,169,4320,146.7C4480,125,4640,95,4800,80.7C4960,66,5120,66,5280,88C5440,110,5600,154,5760,157.7C5920,161,6080,125,6240,95.3C6400,66,6560,44,6720,36.7C6880,29,7040,37,7200,55C7360,73,7520,103,7680,102.7C7840,103,8000,73,8160,51.3C8320,29,8480,15,8640,33C8800,51,8960,103,9120,106.3C9280,110,9440,66,9600,58.7C9760,51,9920,81,10080,110C10240,139,10400,169,10560,183.3C10720,198,10880,198,11040,183.3C11200,169,11360,139,11440,124.7L11520,110L11520,220L11440,220C11360,220,11200,220,11040,220C10880,220,10720,220,10560,220C10400,220,10240,220,10080,220C9920,220,9760,220,9600,220C9440,220,9280,220,9120,220C8960,220,8800,220,8640,220C8480,220,8320,220,8160,220C8000,220,7840,220,7680,220C7520,220,7360,220,7200,220C7040,220,6880,220,6720,220C6560,220,6400,220,6240,220C6080,220,5920,220,5760,220C5600,220,5440,220,5280,220C5120,220,4960,220,4800,220C4640,220,4480,220,4320,220C4160,220,4000,220,3840,220C3680,220,3520,220,3360,220C3200,220,3040,220,2880,220C2720,220,2560,220,2400,220C2240,220,2080,220,1920,220C1760,220,1600,220,1440,220C1280,220,1120,220,960,220C800,220,640,220,480,220C320,220,160,220,80,220L0,220Z"/><defs><linearGradient id="sw-gradient-1" x1="0" x2="0" y1="1" y2="0"><stop stop-color="rgba(255, 255, 255, 1)" offset="0%"/><stop stop-color="rgba(255, 255, 255, 1)" offset="100%"/></linearGradient></defs><path style="transform:translate(0, 50px); opacity:0.9" fill="url(#sw-gradient-1)" d="M0,88L80,106.3C160,125,320,161,480,154C640,147,800,95,960,91.7C1120,88,1280,132,1440,157.7C1600,183,1760,191,1920,168.7C2080,147,2240,95,2400,73.3C2560,51,2720,59,2880,55C3040,51,3200,37,3360,55C3520,73,3680,125,3840,150.3C4000,176,4160,176,4320,179.7C4480,183,4640,191,4800,187C4960,183,5120,169,5280,168.7C5440,169,5600,183,5760,187C5920,191,6080,183,6240,157.7C6400,132,6560,88,6720,62.3C6880,37,7040,29,7200,25.7C7360,22,7520,22,7680,40.3C7840,59,8000,95,8160,110C8320,125,8480,117,8640,95.3C8800,73,8960,37,9120,44C9280,51,9440,103,9600,102.7C9760,103,9920,51,10080,47.7C10240,44,10400,88,10560,91.7C10720,95,10880,59,11040,55C11200,51,11360,81,11440,95.3L11520,110L11520,220L11440,220C11360,220,11200,220,11040,220C10880,220,10720,220,10560,220C10400,220,10240,220,10080,220C9920,220,9760,220,9600,220C9440,220,9280,220,9120,220C8960,220,8800,220,8640,220C8480,220,8320,220,8160,220C8000,220,7840,220,7680,220C7520,220,7360,220,7200,220C7040,220,6880,220,6720,220C6560,220,6400,220,6240,220C6080,220,5920,220,5760,220C5600,220,5440,220,5280,220C5120,220,4960,220,4800,220C4640,220,4480,220,4320,220C4160,220,4000,220,3840,220C3680,220,3520,220,3360,220C3200,220,3040,220,2880,220C2720,220,2560,220,2400,220C2240,220,2080,220,1920,220C1760,220,1600,220,1440,220C1280,220,1120,220,960,220C800,220,640,220,480,220C320,220,160,220,80,220L0,220Z"/></svg>